<?xml version="1.0" standalone="no"?><!DOCTYPE svg PUBLIC "-//W3C//DTD SVG 1.1//EN" "http://www.w3.org/Graphics/SVG/1.1/DTD/svg11.dtd"><svg t="1544170328627" class="icon" style="" viewBox="0 0 1024 1024" version="1.1" xmlns="http://www.w3.org/2000/svg" p-id="32790" xmlns:xlink="http://www.w3.org/1999/xlink" width="200" height="200"><defs><style type="text/css"></style></defs><path d="M581.666133 833.6384l58.914134 56.866133c15.428267 14.882133 15.4624 39.082667 0.068266 53.998934a40.413867 40.413867 0 0 1-55.808 0.068266l-126.498133-122.094933a37.341867 37.341867 0 0 1-0.068267-54.033067c7.850667-7.5776 18.158933-11.332267 28.433067-11.195733h168.96c141.0048 0 255.249067-110.318933 255.249067-246.306133 0-117.6576-86.152533-218.248533-204.117334-241.390934-21.367467-4.1984-35.191467-24.337067-30.856533-45.021866 4.334933-20.6848 25.156267-34.030933 46.523733-29.832534C877.056 225.006933 989.866667 356.693333 989.866667 510.941867c0 178.244267-149.640533 322.696533-334.165334 322.696533H581.632zM446.020267 193.877333l-62.600534-60.416a37.341867 37.341867 0 0 1-0.068266-53.998933 40.413867 40.413867 0 0 1 55.842133-0.068267l126.498133 122.094934c8.192 7.953067 12.0832 18.5344 11.537067 28.9792V232.106667c0 21.0944-17.646933 38.229333-39.458133 38.229333h-169.437867c-141.0048 0-255.249067 110.250667-255.249067 246.272 0 117.6576 86.152533 218.248533 204.117334 241.390933 21.367467 4.1984 35.191467 24.337067 30.856533 45.021867-4.334933 20.6848-25.156267 34.030933-46.523733 29.832533C146.944 802.542933 34.133333 670.788267 34.133333 516.608c0-178.244267 149.640533-322.696533 334.165334-322.696533h77.7216z" p-id="32791" fill="#FFD700"></path></svg>