<?xml version="1.0" standalone="no"?><!DOCTYPE svg PUBLIC "-//W3C//DTD SVG 1.1//EN" "http://www.w3.org/Graphics/SVG/1.1/DTD/svg11.dtd"><svg t="1545306940049" class="icon" style="" viewBox="0 0 1024 1024" version="1.1" xmlns="http://www.w3.org/2000/svg" p-id="3681" xmlns:xlink="http://www.w3.org/1999/xlink" width="200" height="200"><defs><style type="text/css"></style></defs><path d="M865.657466 4.81396L439.824403 140.364424a137.468632 137.468632 0 0 0-93.350792 124.680852v466.753958a145.780688 145.780688 0 0 0-99.744682-11.509001A203.965086 203.965086 0 0 0 63.86368 899.958537c0 84.399346 81.84179 136.189854 182.865249 121.483907a191.816695 191.816695 0 0 0 175.192582-177.110748V448.549914c0-37.084561 42.839062-53.069286 42.839062-53.069285l376.600111-125.95963s42.199673-14.705947 42.199673 25.575559v319.694492a182.865249 182.865249 0 0 0-107.417349-14.066557 198.849974 198.849974 0 0 0-182.865249 175.83197c0 84.399346 81.84179 138.108021 182.865249 127.877797A198.210585 198.210585 0 0 0 959.008257 726.044734V74.507359A68.414621 68.414621 0 0 0 865.657466 4.81396z" p-id="3682" fill="#FFD700"></path></svg>