<?xml version="1.0" standalone="no"?><!DOCTYPE svg PUBLIC "-//W3C//DTD SVG 1.1//EN" "http://www.w3.org/Graphics/SVG/1.1/DTD/svg11.dtd"><svg t="1544170998337" class="icon" style="" viewBox="0 0 1025 1024" version="1.1" xmlns="http://www.w3.org/2000/svg" p-id="38111" xmlns:xlink="http://www.w3.org/1999/xlink" width="200.1953125" height="200"><defs><style type="text/css"></style></defs><path d="M768.02048 704l-101.49888 0-160.01024-160.01024 160.01024-160.01024 101.49888 0 0 160.01024 224.01024-224.01024-224.01024-224.01024 0 160.01024-128 0c-16.97792 0-33.25952 6.73792-45.2608 18.7392l-178.74944 178.74944-178.74944-178.74944c-12.00128-12.00128-28.28288-18.7392-45.2608-18.7392l-192 0 0 128 165.49888 0 160.01024 160.01024-160.01024 160.01024-165.49888 0 0 128 192 0c16.97792 0 33.25952-6.73792 45.2608-18.7392l178.74944-178.74944 178.74944 178.74944c12.00128 12.00128 28.28288 18.7392 45.2608 18.7392l128 0 0 160.01024 224.01024-224.01024-224.01024-224.01024 0 160.01024z" p-id="38112" fill="#FFD700"></path></svg>