<?xml version="1.0" standalone="no"?><!DOCTYPE svg PUBLIC "-//W3C//DTD SVG 1.1//EN" "http://www.w3.org/Graphics/SVG/1.1/DTD/svg11.dtd"><svg t="1544171090186" class="icon" style="" viewBox="0 0 1024 1024" version="1.1" xmlns="http://www.w3.org/2000/svg" p-id="38888" xmlns:xlink="http://www.w3.org/1999/xlink" width="200" height="200"><defs><style type="text/css"></style></defs><path d="M905.6 457.9c-0.3-0.1-0.6-0.1-0.9-0.1-17.7 0-32 14.3-32 32-2.8 126-106.8 226-232.7 224H264.7c-16.5-0.1-30.3 12.5-31.8 29-4 17.1 4.2 34.7 19.8 42.7l168.1 75.1c3.9 1.8 8.1 2.7 12.4 2.8 19.4-1.1 34.3-17.7 33.3-37.1v-49.1H640c160.7 2 293.1-125.8 296.7-286.5 0.5-17.7-13.5-32.4-31.1-32.8zM626.6 308.5H828c14.2-0.4 26.6-9.7 30.9-23.3 7.1-18.5-1-39.3-18.6-48.2l-168.1-74.2c-3.9-1.8-8.1-2.7-12.4-2.8-19.4 1.1-34.3 17.7-33.3 37.1v47.4H380.2c-160.6-1.2-291.7 128-292.9 288.6v0.2c0 17.7 14.3 32 32 32s32-14.3 32-32c1.5-125 103.9-225.2 228.9-224l246.4-0.8z" fill="#FFD700" p-id="38889"></path><path d="M469.3 592c-14.7 0-26.7 11.9-26.7 26.7 0 14.7 11.9 26.7 26.7 26.7h85.3c14.7 0 26.7-11.9 26.7-26.7 0-14.7-11.9-26.7-26.7-26.7h-16V416c0-14.7-11.9-26.7-26.7-26.7h-32c-14.7 0-26.7 11.9-26.7 26.7 0 14.8 11.9 26.7 26.7 26.7h5.3V592h-15.9z" fill="#FFD700" p-id="38890"></path></svg>